<svg id="Layer_1" data-name="Layer 1" xmlns="http://www.w3.org/2000/svg" viewBox="0 0 543 432"><title>roko_store</title><path d="M921,350V752H408V350H921m15-15H393V767H936V335Z" transform="translate(-393 -335)"/><path d="M516.63,454.48c1.88,0,4,.12,6.45.36s4.8.56,7.14,1,4.49.8,6.45,1.2a38.71,38.71,0,0,1,4.33,1.08l-3.75,19.45a71.86,71.86,0,0,0-8.55-2.28,73.14,73.14,0,0,0-15.35-1.33,55.71,55.71,0,0,0-12.06,1.33q-6,1.32-7.85,1.8V582H471.65V462.4a145.73,145.73,0,0,1,19.21-5.4A120.6,120.6,0,0,1,516.63,454.48Z" transform="translate(-393 -335)"/><path d="M656.68,518.55a81.06,81.06,0,0,1-4.2,26.89,61.92,61.92,0,0,1-11.77,20.65,51.89,51.89,0,0,1-18.07,13.32,58.12,58.12,0,0,1-45.7,0,51.71,51.71,0,0,1-18.07-13.32,61.94,61.94,0,0,1-11.78-20.65,87.83,87.83,0,0,1,0-53.67A61.74,61.74,0,0,1,558.87,471a51.71,51.71,0,0,1,18.07-13.32,58.12,58.12,0,0,1,45.7,0A51.89,51.89,0,0,1,640.71,471a61.72,61.72,0,0,1,11.77,20.77A81.41,81.41,0,0,1,656.68,518.55Zm-22.62,0q0-21.13-9.21-33.5t-25.06-12.36q-15.87,0-25.07,12.36t-9.21,33.5q0,21.12,9.21,33.49t25.07,12.37q15.86,0,25.06-12.37T634.06,518.55Z" transform="translate(-393 -335)"/><path d="M706.06,515.3A148.36,148.36,0,0,1,720.87,529q7.8,8.16,15.39,17.65t14.34,19.21Q757.35,575.57,762,584H736.61a200.29,200.29,0,0,0-11.31-17.16Q718.88,558,711.89,550a195.11,195.11,0,0,0-14.22-14.77A129.15,129.15,0,0,0,683.91,524v60H662.22V401.49l21.69-3.84V511.46l12.36-12.72q6.76-7,13.29-14.17t12.36-13.81q5.82-6.6,10-11.64h25.42q-5.37,6-11.66,13.2t-13.06,14.53q-6.76,7.32-13.64,14.65T706.06,515.3Z" transform="translate(-393 -335)"/><path d="M876.2,518.55A81.32,81.32,0,0,1,872,545.44a62.11,62.11,0,0,1-11.78,20.65,51.8,51.8,0,0,1-18.07,13.32,58.12,58.12,0,0,1-45.7,0,51.8,51.8,0,0,1-18.07-13.32,61.94,61.94,0,0,1-11.78-20.65,88,88,0,0,1,0-53.67A61.74,61.74,0,0,1,778.39,471a51.8,51.8,0,0,1,18.07-13.32,58.12,58.12,0,0,1,45.7,0A51.8,51.8,0,0,1,860.23,471,61.9,61.9,0,0,1,872,491.77,81.67,81.67,0,0,1,876.2,518.55Zm-22.61,0q0-21.13-9.21-33.5t-25.07-12.36q-15.85,0-25.07,12.36T785,518.55q0,21.12,9.21,33.49t25.07,12.37q15.86,0,25.07-12.37T853.59,518.55Z" transform="translate(-393 -335)"/><path d="M561.05,689.54a7.58,7.58,0,0,1-2.65,6.27,9.41,9.41,0,0,1-12,0,8.77,8.77,0,0,1,0-12.54,9.41,9.41,0,0,1,12,0A7.6,7.6,0,0,1,561.05,689.54Z" transform="translate(-393 -335)"/><path d="M584.35,687a14,14,0,0,0,5.38-.73,2.83,2.83,0,0,0,1.58-2.84q0-1.65-2-2.88a39.21,39.21,0,0,0-6.22-2.8,62.2,62.2,0,0,1-5.9-2.47,17.55,17.55,0,0,1-4.5-3.06,12.44,12.44,0,0,1-2.88-4.26,15.58,15.58,0,0,1-1-6,12.78,12.78,0,0,1,5.11-10.71q5.1-3.93,14-3.94a45.43,45.43,0,0,1,8.54.78,41.33,41.33,0,0,1,6.5,1.69l-2.41,10.62a51.9,51.9,0,0,0-5.25-1.46,28.6,28.6,0,0,0-6.35-.64c-4.34,0-6.5,1.19-6.5,3.57a3.52,3.52,0,0,0,.28,1.46,3.07,3.07,0,0,0,1.11,1.24,15.54,15.54,0,0,0,2.27,1.28c1,.47,2.19,1,3.67,1.53a58.27,58.27,0,0,1,7.52,3.27,18.05,18.05,0,0,1,4.69,3.49,10.71,10.71,0,0,1,2.41,4.16,18.32,18.32,0,0,1,.7,5.29q0,7.13-5.43,10.78t-15.37,3.65a43.45,43.45,0,0,1-16.8-2.93l2.32-11.07A46.68,46.68,0,0,0,577,686.2,35.65,35.65,0,0,0,584.35,687Z" transform="translate(-393 -335)"/><path d="M614.88,636.63l13.83-2.19v14.18h16.62V660H628.71v16.93a13.28,13.28,0,0,0,1.54,6.86c1,1.71,3.07,2.57,6.17,2.57a27.17,27.17,0,0,0,4.59-.41,24.25,24.25,0,0,0,4.32-1.15l1.95,10.62a40.23,40.23,0,0,1-5.57,1.74,32.8,32.8,0,0,1-7.52.73,25,25,0,0,1-9.37-1.51,14.66,14.66,0,0,1-5.94-4.21,15.43,15.43,0,0,1-3.11-6.54,38.1,38.1,0,0,1-.89-8.52Z" transform="translate(-393 -335)"/><path d="M700.37,672.61A30.81,30.81,0,0,1,698.7,683a22.52,22.52,0,0,1-4.82,8,21.75,21.75,0,0,1-7.57,5.17,25.56,25.56,0,0,1-9.89,1.83,25.3,25.3,0,0,1-9.79-1.83,21.62,21.62,0,0,1-7.56-5.17,23.47,23.47,0,0,1-4.92-8,29.39,29.39,0,0,1-1.77-10.39,28.58,28.58,0,0,1,1.81-10.35,23.43,23.43,0,0,1,5-8,22.57,22.57,0,0,1,7.61-5.13,24.8,24.8,0,0,1,9.6-1.83,25.05,25.05,0,0,1,9.7,1.83,22.21,22.21,0,0,1,7.57,5.13,23.37,23.37,0,0,1,4.92,8A29.23,29.23,0,0,1,700.37,672.61Zm-14.11,0q0-6.32-2.55-9.93a8.39,8.39,0,0,0-7.29-3.62,8.51,8.51,0,0,0-7.33,3.62q-2.6,3.62-2.6,9.93t2.6,10a8.44,8.44,0,0,0,7.33,3.71,8.32,8.32,0,0,0,7.29-3.71Q686.26,678.93,686.26,672.61Z" transform="translate(-393 -335)"/><path d="M740.47,660.71c-1.24-.31-2.69-.63-4.36-1a27,27,0,0,0-5.38-.51,25.73,25.73,0,0,0-3.11.23,17.19,17.19,0,0,0-2.74.51v36.79H711.05V651.19a84.06,84.06,0,0,1,8.77-2.43,51.39,51.39,0,0,1,11.28-1.14c.74,0,1.64,0,2.69.13s2.1.22,3.15.37,2.11.34,3.16.55a14.3,14.3,0,0,1,2.69.78Z" transform="translate(-393 -335)"/><path d="M747,673.06a29.1,29.1,0,0,1,2-11.21,24,24,0,0,1,5.25-8,21.84,21.84,0,0,1,7.47-4.85,23.68,23.68,0,0,1,8.68-1.65q10.39,0,16.43,6.27t6,18.45q0,1.19-.09,2.61c-.06.94-.12,1.78-.19,2.51H761.17a9.06,9.06,0,0,0,4,6.69c2.35,1.64,5.51,2.47,9.47,2.47a40.23,40.23,0,0,0,7.47-.69,28.73,28.73,0,0,0,6-1.69L790,695a18.81,18.81,0,0,1-3,1.1,37.43,37.43,0,0,1-4.14,1c-1.51.28-3.14.51-4.87.69a50.31,50.31,0,0,1-5.2.27,31.19,31.19,0,0,1-11.46-1.92,22.35,22.35,0,0,1-8.08-5.26A20.91,20.91,0,0,1,748.5,683,31,31,0,0,1,747,673.06Zm32.49-5.21a14.36,14.36,0,0,0-.61-3.39,8.13,8.13,0,0,0-4.27-5,8.84,8.84,0,0,0-4-.83,9.42,9.42,0,0,0-4,.78,8.31,8.31,0,0,0-2.78,2.06,9.16,9.16,0,0,0-1.72,3,19.63,19.63,0,0,0-.88,3.43Z" transform="translate(-393 -335)"/></svg>